<svg width="128" height="128" viewBox="0 0 128 128" fill="none" xmlns="http://www.w3.org/2000/svg">
<rect width="128" height="128" rx="20" fill="#F02E65"/>
<path d="M43.6 97.9C40.6667 97.9 38.4 97.1 36.8 95.5C35.2 93.8333 34.4 91.5333 34.4 88.6V34.9C34.4 31.8333 35.2 29.5333 36.8 28C38.4 26.4 40.6667 25.6 43.6 25.6C46.6 25.6 48.8667 26.4 50.4 28C52 29.5333 52.8 31.8333 52.8 34.9V56.7H53L77.3 29.9C78.5667 28.5666 79.9 27.5333 81.3 26.8C82.7667 26 84.4 25.6 86.2 25.6C89 25.6 91 26.3333 92.2 27.8C93.4667 29.2 94.0333 30.8666 93.9 32.8C93.8333 34.6666 93.0667 36.4 91.6 38L67.4 63.7V56.2L92.8 84.9C94.5333 86.8333 95.4 88.8333 95.4 90.9C95.4 92.9 94.7 94.5666 93.3 95.9C91.9667 97.2333 89.9667 97.9 87.3 97.9C85.0333 97.9 83.2 97.4666 81.8 96.6C80.4667 95.6666 79 94.3 77.4 92.5L53 65.2H52.8V88.6C52.8 91.5333 52.0333 93.8333 50.5 95.5C48.9667 97.1 46.6667 97.9 43.6 97.9Z" fill="white"/>
</svg>
